<?xml version="1.0" encoding="UTF-8"?>
<svg id="Layer_1" data-name="Layer 1" xmlns="http://www.w3.org/2000/svg" viewBox="0 0 48 48">
  <defs>
    <style>
      .cls-1 {
        fill: #484848;
      }
    </style>
  </defs>
  <path class="cls-1" d="M32.72,44.69H4.63c-.35,0-.63-.28-.63-.63V3.94c0-.35.28-.63.63-.63h28.09c.35,0,.63.28.63.63v14.1c0,.35-.28.63-.63.63s-.63-.28-.63-.63V4.57H5.26v38.86h26.83v-1.35c0-.35.28-.63.63-.63s.63.28.63.63v1.98c0,.35-.28.63-.63.63Z"/>
  <g>
    <path class="cls-1" d="M38.31,44.37c-.22,0-.44-.12-.55-.33l-.68-1.25c-.32-.58-.79-1.06-1.36-1.39l-4.94-2.8c-.64-.36-1.2-.84-1.65-1.42l-3.19-4.03s-.02-.03-.04-.05l-2.61-4.05c-.62-.99-.42-2.29.47-3.03.48-.4,1.09-.6,1.71-.54.62.06,1.19.35,1.59.84l2.83,3.43,4.27,2.49c.3.18.4.56.23.86-.18.3-.56.4-.86.23l-4.37-2.55c-.06-.04-.12-.09-.17-.14l-2.9-3.51c-.18-.22-.44-.36-.73-.38-.29-.03-.57.06-.79.25-.41.34-.5.95-.22,1.4l2.59,4.02,3.17,4.01c.36.45.79.82,1.29,1.11l4.94,2.8c.78.44,1.42,1.09,1.85,1.88l.68,1.25c.17.3.05.69-.25.85-.1.05-.2.08-.3.08Z"/>
    <path class="cls-1" d="M21.74,28.66c-.07,0-.14-.01-.21-.03-.44-.15-.79-.47-.98-.88-.2-.43-.2-.95-.02-1.41.02-.05.05-.1.08-.14l3.18-4.25c.18-.32.47-.57.81-.71,0,0,.02,0,.02,0l3.68-1.33c.45-.18.96-.21,1.43-.08l3.69,1.03c.33.09.53.44.44.77-.09.33-.44.53-.77.44l-3.69-1.03c-.21-.06-.43-.04-.63.04,0,0-.02,0-.02,0l-3.68,1.33c-.08.04-.15.1-.2.18-.01.03-.03.05-.05.08l-3.15,4.2c-.04.13-.03.25.02.35.05.1.13.17.25.21.33.11.5.47.39.8-.09.26-.33.42-.59.42Z"/>
    <path class="cls-1" d="M43.37,38.97c-.27,0-.51-.17-.6-.44l-4.58-14.15c-.2-.63-.7-1.1-1.33-1.28l-1.08-.3c-.33-.09-.53-.44-.44-.77s.44-.53.77-.44l1.08.3c1.04.29,1.86,1.08,2.19,2.11l4.58,14.15c.11.33-.07.68-.4.79-.06.02-.13.03-.19.03Z"/>
    <path class="cls-1" d="M31.91,32.26c-.07,0-.14-.01-.2-.03-.33-.11-.5-.47-.39-.8l1.06-3.08-3.18-2.02c-.29-.19-.38-.57-.19-.87.19-.29.57-.38.87-.19l3.6,2.29c.24.16.35.46.26.73l-1.22,3.55c-.09.26-.33.43-.59.43Z"/>
    <path class="cls-1" d="M23.54,33.56c-.15,0-.29-.01-.44-.04-.88-.17-1.51-.98-1.46-1.88l.09-1.72c.02-.35.32-.61.66-.59.35.02.61.32.59.66l-.09,1.72c-.02.27.18.52.45.57.49.1.98-.19,1.13-.67l.15-.61c.09-.34.43-.54.76-.45.34.09.54.43.45.76l-.16.62s0,.02,0,.03c-.29.96-1.17,1.59-2.14,1.59Z"/>
    <path class="cls-1" d="M16.26,32.87c-.22,0-.42-.11-.54-.31-.15-.25-.11-.58.11-.78l2.71-2.55s.08-.07.12-.09l4.78-2.69c.3-.17.69-.06.86.24.17.3.06.69-.24.86l-4.72,2.65-.59.56.75-.25,3.97-2.25c.3-.17.69-.07.86.24.17.3.07.69-.24.86l-4.02,2.28s-.07.04-.11.05l-3.5,1.15c-.06.02-.13.03-.2.03Z"/>
    <path class="cls-1" d="M27.29,27.48c-.22,0-.43-.12-.55-.32-.17-.3-.06-.69.24-.86l11.61-6.53-.17-.3-12.44,7c-.3.17-.69.06-.86-.24-.17-.3-.06-.69.24-.86l12.99-7.31c.3-.17.69-.06.86.24l.79,1.4c.08.15.1.32.06.48-.04.16-.15.3-.3.38l-12.16,6.84c-.1.05-.2.08-.31.08Z"/>
    <path class="cls-1" d="M27.8,25.35s-.08,0-.12-.01l-1.59-.3c-.34-.06-.57-.39-.5-.73.06-.34.39-.57.73-.5l1.59.3c.34.06.57.39.5.73-.06.3-.32.51-.62.51Z"/>
  </g>
  <path class="cls-1" d="M20.04,16.57h-2.73c-.35,0-.63-.28-.63-.63v-2.56h-2.56c-.35,0-.63-.28-.63-.63v-2.73c0-.35.28-.63.63-.63h2.56v-2.56c0-.35.28-.63.63-.63h2.73c.35,0,.63.28.63.63v2.56h2.56c.35,0,.63.28.63.63v2.73c0,.35-.28.63-.63.63h-2.56v2.56c0,.35-.28.63-.63.63ZM17.93,15.31h1.48v-2.56c0-.35.28-.63.63-.63h2.56v-1.48h-2.56c-.35,0-.63-.28-.63-.63v-2.56h-1.48v2.56c0,.35-.28.63-.63.63h-2.56v1.48h2.56c.35,0,.63.28.63.63v2.56Z"/>
  <path class="cls-1" d="M19.2,24.8h-10.2c-.35,0-.63-.28-.63-.63s.28-.63.63-.63h10.2c.35,0,.63.28.63.63s-.28.63-.63.63Z"/>
  <path class="cls-1" d="M14.1,20.72h-5.1c-.35,0-.63-.28-.63-.63s.28-.63.63-.63h5.1c.35,0,.63.28.63.63s-.28.63-.63.63Z"/>
  <path class="cls-1" d="M16.24,28.8h-7.25c-.35,0-.63-.28-.63-.63s.28-.63.63-.63h7.25c.35,0,.63.28.63.63s-.28.63-.63.63Z"/>
  <path class="cls-1" d="M13.46,32.8h-4.46c-.35,0-.63-.28-.63-.63s.28-.63.63-.63h4.46c.35,0,.63.28.63.63s-.28.63-.63.63Z"/>
</svg>