<?xml version="1.0" encoding="UTF-8"?>
<svg id="Layer_1" data-name="Layer 1" xmlns="http://www.w3.org/2000/svg" viewBox="0 0 48 48">
  <defs>
    <style>
      .cls-1 {
        fill: #4b4b4b;
        stroke: #353535;
        stroke-miterlimit: 10;
        stroke-width: .5px;
      }
    </style>
  </defs>
  <g id="Icon_6" data-name="Icon 6">
    <path id="Person_Icon" data-name="Person Icon" class="cls-1" d="M25.34,16.03c2.06,0,3.16-2.18,3.16-3.76,0-1.13-.31-3.76-3.16-3.76s-3.16,2.63-3.16,3.76c0,1.58,1.1,3.76,3.16,3.76ZM25.34,8.96c2.33,0,2.68,2.08,2.68,3.32,0,1.39-.93,3.32-2.68,3.32s-2.68-1.93-2.68-3.32c0-1.24.35-3.32,2.68-3.32ZM31.18,22.66h-2.19v-2.21c0-2.12-1.93-3.98-4.14-3.98-1.21,0-2.19.89-2.19,1.99v7.19h.49v-2.83c.58,1.67,1.69,2.94,3.41,2.94h4.62c.94,0,1.7-.69,1.7-1.55s-.76-1.55-1.7-1.55ZM31.18,25.31h-4.62c-2.5,0-3.4-3.3-3.41-5.52v-1.34c0-.85.76-1.55,1.7-1.55,1.94,0,3.65,1.65,3.65,3.54v2.21h-1.68l-.81-3.68c-.03-.12-.15-.2-.29-.17-.13.02-.22.14-.19.26l.84,3.81v.22h4.8c.67,0,1.22.5,1.22,1.11s-.55,1.11-1.22,1.11ZM44,37.81c0,.37-.33.66-.73.66h-4.87c-.4,0-.73-.3-.73-.66,0-.12.11-.22.24-.22s.24.1.24.22.11.22.24.22h4.87c.13,0,.24-.1.24-.22,0-.85-.76-1.55-1.7-1.55h-3.89c-.13,0-.24-.1-.24-.22s.11-.22.24-.22h1.85l-.55-5.09c-.18-1.7-1.75-2.99-3.63-2.99h-1.17v-.44h1.17c2.14,0,3.91,1.46,4.12,3.39l.56,5.13h1.56c1.21,0,2.19.89,2.19,1.99Z"/>
    <path id="Wheelchair" class="cls-1" d="M25.26,30.96c-3.5,0-6.14,2.38-6.14,5.53s2.64,5.53,6.14,5.53,6.14-2.38,6.14-5.53-2.64-5.53-6.14-5.53ZM25.26,41.57c-3.23,0-5.66-2.19-5.66-5.08s2.43-5.08,5.66-5.08,5.66,2.19,5.66,5.08-2.43,5.08-5.66,5.08ZM43.51,39.25h-6.57v-5.73c0-3.97-3.56-7.2-7.93-7.2h-7.64v-2.97l-1.86-1.69h-2.78c-.13,0-.24.1-.24.22s.11.22.24.22h2.58l1.58,1.43v6.48c-2.44,1.28-4.01,3.64-4.01,6.47,0,4.28,3.61,7.52,8.39,7.52s8.21-3.08,8.38-7.22l2.81,2.56v.92c-.98.1-1.7.82-1.7,1.75,0,1.01.84,1.77,1.95,1.77s1.95-.76,1.95-1.77c0-.93-.72-1.64-1.7-1.75v-.57h6.57c.13,0,.24-.1.24-.22s-.11-.22-.24-.22ZM21.37,26.76h7.64c3.47,0,6.38,2.17,7.2,5.08h-4.27c-1.51-1.77-3.89-2.87-6.69-2.87-1.42,0-2.74.29-3.89.81v-3.02ZM25.26,43.56c-4.51,0-7.91-3.04-7.91-7.07s3.4-7.07,7.91-7.07,7.91,3.04,7.91,7.07-3.4,7.07-7.91,7.07ZM33.64,36.16c-.06-1.45-.54-2.77-1.34-3.87h4.02c.08.4.13.81.13,1.23v5.2l-2.82-2.56ZM38.16,42.01c0,.76-.63,1.33-1.46,1.33s-1.46-.57-1.46-1.33.63-1.33,1.46-1.33,1.46.57,1.46,1.33Z"/>
    <path id="Person_Icon-2" data-name="Person Icon" class="cls-1" d="M14.8,41.35h-.92l1.29-5.88c.38-1.75.38-3.52,0-5.26l-1.25-5.7.03.03c.33.3.77.45,1.2.45s.87-.15,1.2-.45c.66-.6.66-1.58,0-2.19l-2.21-2.01s.02-4.6.02-4.6c0-2.07-1.86-3.76-4.14-3.76-1.21,0-2.19.89-2.19,1.99v10.38c-.01.6-.01,1.32.39,2.46v4.9l-3.43,7.52-.74,1.63c-.07.16-.07.34,0,.51.07.16.21.29.39.36l4.5,1.69c.09.03.19.05.28.05.29,0,.56-.15.68-.41.46-1.01-.07-2.18-1.19-2.6l-.81-.31,3.57-6.07-.79,7.26s-.02,1.99-.02,1.99c0,.37.33.66.73.66h4.87c.4,0,.73-.3.73-.66,0-1.1-.98-1.99-2.19-1.99ZM10.03,12.41c2.01,0,3.65,1.49,3.65,3.32v4.18l-.32-.29c-.69-.63-1.07-1.46-1.07-2.34v-1.52c0-.12-.11-.22-.24-.22s-.24.1-.24.22v1.52c0,1,.43,1.95,1.21,2.66l3,2.72c.47.43.47,1.13,0,1.56-.47.43-1.25.43-1.72,0l-3-2.72c-1.24-1.13-1.92-2.63-1.92-4.22v-2.49c0-.12-.11-.22-.24-.22s-.24.1-.24.22v2.49c0,1.71.73,3.32,2.07,4.53l2.29,2.08h-4.92v-9.93c0-.85.77-1.55,1.71-1.55ZM9.45,42.89c-.05.11-.19.17-.32.12l-4.5-1.69c-.06-.02-.11-.07-.13-.12-.02-.05-.02-.11,0-.17l.65-1.43,3.37,1.27c.87.33,1.28,1.23.92,2.02ZM5.34,39.19l3.36-7.36v-3.87s2.56,5.56,2.56,5.56l-3.8,6.46-2.11-.79ZM11.98,33.95l-2.95-6.45c-.73-1.59-.72-2.46-.71-3.15,0-.02,5.06-.02,5.06-.02l1.31,5.96c.37,1.69.37,3.4,0,5.09l-1.31,5.97h-2.21l.8-7.4ZM16.26,43.56h-4.87c-.13,0-.24-.1-.24-.22v-1.55h3.65c.94,0,1.7.69,1.7,1.55,0,.12-.11.22-.24.22ZM10.83,11.43c.16.03.33.04.5.04,1.68,0,3.08-1.65,3.41-3.17.24-1.11.5-3.74-2.3-4.25-.23-.04-.46-.06-.68-.06-2.28,0-3.02,2.23-3.23,3.19-.34,1.55.27,3.88,2.3,4.25ZM9.01,7.28c.19-.85.83-2.83,2.75-2.83.19,0,.38.02.59.06,2.28.41,2.18,2.51,1.91,3.73-.3,1.35-1.5,2.81-2.94,2.81-.13,0-.27-.01-.4-.04-1.71-.31-2.21-2.36-1.91-3.73Z"/>
  </g>
</svg>