<?xml version="1.0" encoding="UTF-8"?>
<svg id="Layer_1" data-name="Layer 1" xmlns="http://www.w3.org/2000/svg" viewBox="0 0 48 48">
  <defs>
    <style>
      .cls-1 {
        fill: #4b4b4b;
        stroke: #353535;
        stroke-linejoin: round;
        stroke-width: .5px;
      }
    </style>
  </defs>
  <g id="Icon_3" data-name="Icon 3">
    <path id="Stairs" class="cls-1" d="M36.43,38.96v-4.4h-4v-8.4h-.6v-4.6h2.27v-.4H7.99l-4.06,4.06c-.08.08-.08.2,0,.28.04.04.09.06.14.06s.1-.02.14-.06l3.94-3.94h4.47v4.6h-.6v8.4h-4v4.4H2.23v4.8h40v-4.8h-5.8ZM32.03,34.56h-.8v-8h.8v8ZM13.03,21.56h18.4v4.6h-.6v8.4H13.63v-8.4h-.6v-4.6ZM12.43,26.56h.8v8h-.8v-8ZM8.43,34.96h27.6v4H8.43v-4ZM41.83,43.36H2.63v-4h39.2v4ZM37.81,22.88l.28-.28,2.63,2.63c.08.08.08.2,0,.28-.04.04-.09.06-.14.06s-.1-.02-.14-.06l-2.63-2.63Z"/>
    <path id="Person_Icon" data-name="Person Icon" class="cls-1" d="M35.81,11.04c1.7,0,2.6-1.97,2.6-3.4,0-1.02-.25-3.4-2.6-3.4s-2.6,2.38-2.6,3.4c0,1.43.9,3.4,2.6,3.4ZM35.81,4.64c1.91,0,2.2,1.88,2.2,3,0,1.26-.76,3-2.2,3s-2.2-1.74-2.2-3c0-1.12.29-3,2.2-3ZM42.02,21.12s-1.75-8.83-1.75-8.83c-.19-.97-1.14-1.61-2.12-1.41-.89.18-1.66.69-2.16,1.45-.5.76-.68,1.66-.51,2.55l.8,4-1.42,2.12c-.21.31-.28.68-.21,1.05.07.34.26.64.54.85l-1.2,1.46c-.58.7-.84,1.59-.76,2.49l.49,4.94h-.7v.4h3v1.4c0,.11-.09.2-.2.2h-2.8v.4h2.8c.33,0,.6-.27.6-.6v-6.8s1.86-1.24,1.86-1.24l1.05,10.62h-.7c-.99,0-1.8.81-1.8,1.8,0,.33.27.6.6.6h4c.33,0,.6-.27.6-.6v-16.8s0-.03,0-.04ZM35.19,21.22l1.94-2.9c.5-.76.68-1.66.51-2.55l-.25-1.25c-.02-.11-.13-.18-.24-.16-.11.02-.18.13-.16.24l.25,1.25c.16.79,0,1.59-.45,2.25l-.21.31-.72-3.61c-.16-.79,0-1.59.45-2.25.44-.67,1.12-1.12,1.91-1.28.76-.15,1.5.34,1.65,1.1l1.72,8.63-3.88.77,1.42-2.12c.86-1.29,1.17-2.83.87-4.35l-.42-2.11c-.02-.11-.13-.18-.24-.16-.11.02-.18.13-.16.24l.42,2.11c.28,1.41,0,2.85-.81,4.05l-1.94,2.9c-.31.46-.93.58-1.39.28-.22-.15-.37-.37-.42-.64-.05-.26,0-.53.15-.75ZM41.63,37.96c0,.11-.09.2-.2.2h-4c-.11,0-.2-.09-.2-.2,0-.77.63-1.4,1.4-1.4h3v1.4ZM39.73,36.16l-1.16-11.73-.4.04.06.62-2.21,1.48v5.22h-1.89l-.49-4.98c-.08-.8.16-1.58.67-2.2l1.24-1.52c.15.05.31.08.47.08.45,0,.9-.22,1.17-.62l.2-.31,4.23-.84v14.76h-1.89Z"/>
    <path class="cls-1" d="M25.59,27.54l.19,6.47h-.4s-.15-5.21-.15-5.21l-.15,5.22h-.4s.19-6.49.19-6.49c.02-.59.71-.64.73,0ZM28.83,24.36h-7.2c0-.79-.01-1.53-.03-2.21h-.4c.02.74.04,1.55.04,2.41v9.4s.4,0,.4,0v-9.2h7.2v9.26s.4,0,.4,0v-9.46c0-.85.01-1.66.04-2.39h-.4c-.02.67-.03,1.41-.03,2.19ZM22.63,9.36c0-1.02.25-3.4,2.6-3.4s2.6,2.38,2.6,3.4c0,1.43-.9,3.4-2.6,3.4s-2.6-1.97-2.6-3.4ZM23.03,9.36c0,1.26.76,3,2.2,3s2.2-1.74,2.2-3c0-1.12-.29-3-2.2-3s-2.2,1.88-2.2,3ZM31.44,15.01l-1.45,1.45,4.46,3.73-.26.31-4.48-3.75-.02.02-.06.47c-.11.85-.23,1.81-.31,3.23l-.4-.02c.08-1.43.2-2.4.31-3.26l.07-.54s.02-.08.06-.12l1.8-1.8c-.8-.78-1.76-1.57-3.1-1.57h-.68l-2.16,1.44-2.16-1.44h-.68c-1.26,0-2.25,1.15-2.98,2.22l2.12,1.42c.06.04.09.1.09.17,0,0,0,.8,0,.8h4.6c.77,0,1.4.63,1.4,1.4s-.63,1.4-1.4,1.4h-4.8c-1.43,0-2.6-1.17-2.6-2.6v-1c0-.45.08-.9.23-1.34l-.03-.02c-.09-.06-.12-.19-.06-.28.8-1.19,1.91-2.56,3.42-2.56h.8l2.03,1.36,2.03-1.36h.8c1.57,0,2.64.94,3.53,1.83l4.01,4.01-.28.28-3.87-3.87ZM21.23,17.76v-.69l-1.82-1.22c-.11.37-.18.74-.18,1.11v1c0,1.21.99,2.2,2.2,2.2h4.8c.55,0,1-.45,1-1s-.45-1-1-1h-5.6c-.11,0-.2-.09-.2-.2s.09-.2.2-.2h.6Z"/>
  </g>
</svg>