<?xml version="1.0" encoding="UTF-8"?>
<svg id="Layer_1" data-name="Layer 1" xmlns="http://www.w3.org/2000/svg" viewBox="0 0 48 48">
  <defs>
    <style>
      .cls-1 {
        fill: #484848;
      }
    </style>
  </defs>
  <path class="cls-1" d="M16.18,24c0,.28.22.5.5.5s.5-.22.5-.5c0-1.15.71-1.53,2.18-2.19.53-.24,1.14-.52,1.74-.88,2.18-1.3,4.41-2.99,4.41-5.56,0-.28-.22-.5-.5-.5H8.35c-.28,0-.5.22-.5.5,0,2.57,2.23,4.25,4.41,5.56.61.36,1.21.64,1.74.88,1.47.67,2.18,1.04,2.18,2.19ZM8.88,15.87h15.59c-.21,1.45-1.38,2.7-3.89,4.2-.56.33-1.11.58-1.64.83-.89.4-1.75.79-2.27,1.48-.52-.69-1.38-1.08-2.27-1.48-.53-.24-1.08-.49-1.64-.83-2.5-1.5-3.68-2.75-3.89-4.2Z"/>
  <path class="cls-1" d="M21.1,30.44c-.61-.36-1.21-.64-1.75-.88-1.47-.67-2.18-1.04-2.18-2.19,0-.28-.22-.5-.5-.5s-.5.22-.5.5c0,1.15-.71,1.52-2.18,2.19-.53.24-1.14.52-1.75.88-2.18,1.3-4.41,2.98-4.41,5.56v2.45c0,.28.22.5.5.5h16.67c.28,0,.5-.22.5-.5v-2.45c0-2.57-2.23-4.25-4.41-5.56ZM24.51,37.94h-15.67v-1.95c0-1.67,1.14-3.03,3.92-4.7.56-.34,1.11-.59,1.65-.83.89-.4,1.75-.79,2.26-1.48.52.69,1.38,1.08,2.26,1.48.53.24,1.09.49,1.65.83,2.79,1.67,3.92,3.03,3.92,4.7v1.95Z"/>
  <path class="cls-1" d="M34.04,14.04c-2.55,0-4.87.97-6.64,2.55.07-.38.11-.79.11-1.23v-7.32c1.21,0,1.84-1.02,1.84-2.03s-.64-2.03-1.86-2.03H5.86c-1.22,0-1.86,1.02-1.86,2.03s.63,2.02,1.84,2.03v7.32c0,3.72,2.67,5.38,4.62,6.6,1.13.71,2.11,1.32,2.11,2.03s-.98,1.33-2.11,2.03c-1.95,1.21-4.62,2.87-4.62,6.6v7.32c-1.21,0-1.84,1.02-1.84,2.03s.64,2.03,1.86,2.03h21.65c1.22,0,1.86-1.02,1.86-2.03s-.63-2.02-1.84-2.03v-7.32c0-.44-.04-.84-.11-1.23,1.76,1.58,4.09,2.55,6.64,2.55,5.49,0,9.96-4.47,9.96-9.96s-4.47-9.96-9.96-9.96ZM5.86,7.05c-.68,0-.85-.65-.85-1.03s.18-1.03.85-1.03h21.65c.68,0,.85.65.85,1.03s-.18,1.03-.85,1.03H5.86ZM6.84,32.63c0-3.17,2.2-4.54,4.15-5.75,1.39-.86,2.59-1.61,2.59-2.88s-1.2-2.02-2.59-2.88c-1.94-1.21-4.15-2.58-4.15-5.75v-7.32h19.67v7.32c0,3.17-2.2,4.54-4.15,5.75-1.39.86-2.59,1.61-2.59,2.88s1.2,2.02,2.59,2.88c1.94,1.21,4.15,2.58,4.15,5.75v7.32H6.84v-7.32ZM24.62,27.19c-.58-.44-1.18-.82-1.72-1.15-1.13-.71-2.11-1.32-2.11-2.03s.98-1.33,2.11-2.03c.54-.34,1.14-.71,1.72-1.15-.34,1-.53,2.07-.53,3.19s.19,2.18.53,3.19ZM27.5,40.95c.68,0,.85.65.85,1.03s-.18,1.03-.85,1.03H5.86c-.68,0-.85-.65-.85-1.03s.18-1.03.85-1.03h21.65ZM34.04,32.96c-4.94,0-8.96-4.02-8.96-8.96s4.02-8.96,8.96-8.96,8.96,4.02,8.96,8.96-4.02,8.96-8.96,8.96Z"/>
  <path class="cls-1" d="M38.22,22.36h-2.54v-2.54c0-.28-.22-.5-.5-.5h-2.75c-.28,0-.5.22-.5.5v2.54h-2.54c-.28,0-.5.22-.5.5v2.75c0,.28.22.5.5.5h2.54v2.54c0,.28.22.5.5.5h2.75c.28,0,.5-.22.5-.5v-2.54h2.54c.28,0,.5-.22.5-.5v-2.75c0-.28-.22-.5-.5-.5ZM37.72,25.11h-2.54c-.28,0-.5.22-.5.5v2.54h-1.75v-2.54c0-.28-.22-.5-.5-.5h-2.54v-1.75h2.54c.28,0,.5-.22.5-.5v-2.54h1.75v2.54c0,.28.22.5.5.5h2.54v1.75Z"/>
</svg>