<?xml version="1.0" encoding="UTF-8"?>
<svg id="Layer_1" data-name="Layer 1" xmlns="http://www.w3.org/2000/svg" viewBox="0 0 48 48">
  <defs>
    <style>
      .cls-1 {
        fill: #4b4b4b;
        stroke: #353535;
        stroke-miterlimit: 10;
        stroke-width: .5px;
      }
    </style>
  </defs>
  <g id="Icon_1" data-name="Icon 1">
    <path id="Hospital_bed" data-name="Hospital bed" class="cls-1" d="M42.4,26.9H5.6c-.88,0-1.6.72-1.6,1.6s.72,1.6,1.6,1.6h3v12h.4v-12h.8v12h.4v-12h27.6v12h.4v-12h.8v12h.4v-12h3c.88,0,1.6-.72,1.6-1.6s-.72-1.6-1.6-1.6ZM42.4,29.7H5.6c-.66,0-1.2-.54-1.2-1.2s.54-1.2,1.2-1.2h36.8c.66,0,1.2.54,1.2,1.2s-.54,1.2-1.2,1.2Z"/>
    <path id="Person_Icon" data-name="Person Icon" class="cls-1" d="M19.45,40.31c-.26-.24-.7-.41-1.45-.41-.7,0-1.14.15-1.4.36v-9.6s-.4,0-.4,0v10.63s0,.8,0,.8h3.6v-.19l.33-11.24h-.4s-.28,9.64-.28,9.64ZM18,40.3c1.29,0,1.4.49,1.4,1v.4h-2.8v-.4c0-.51.11-1,1.4-1ZM23.8,30.67v9.6c-.27-.22-.7-.36-1.4-.36-.75,0-1.19.17-1.45.41l-.28-9.65h-.4s.33,11.25.33,11.25v.19h3.6v-.8s0-.03,0-.04v-10.59s-.4,0-.4,0ZM21,41.3c0-.51.11-1,1.4-1s1.39.46,1.4.94v.46h-2.8v-.4ZM20.2,12.7c1.7,0,2.6-1.97,2.6-3.4,0-1.02-.25-3.4-2.6-3.4s-2.6,2.38-2.6,3.4c0,1.43.9,3.4,2.6,3.4ZM20.2,6.3c1.91,0,2.2,1.88,2.2,3,0,1.26-.76,3-2.2,3s-2.2-1.74-2.2-3c0-1.12.29-3,2.2-3ZM28.33,16.87l.28-.28-2.06-2.06c-.88-.88-1.96-1.83-3.53-1.83h-.8l-2.03,1.36-2.03-1.36h-1.39c-1.06,0-2,.63-2.4,1.61l-.87,2.09-.61,1.47c-.63,1.55-.3,2.69.99,3.5l.21-.34c-1.13-.71-1.39-1.64-.83-3.01l.54-1.28,1.83.76-.52,1.29c-.14.33-.17.6-.08.81.11.27.38.4.62.5,0,0,.93.39.93.39l.16-.37-.23-.1c-.07-1.08-.2-1.94-.39-2.62l.45-1.1c.04-.1,0-.22-.11-.26-.1-.04-.22,0-.26.11l-.4.97-1.83-.76.79-1.91c.34-.82,1.14-1.36,2.03-1.36h1.27l2.16,1.44,2.16-1.44h.68c1.34,0,2.3.79,3.1,1.57l-1.8,1.8s-.05.07-.05.12c0,0-.07.53-.07.53-.1.78-.21,1.66-.29,2.9l.4.03c.08-1.23.19-2.1.29-2.88l.06-.46.02-.02,1.76,1.47.26-.31-1.73-1.45,1.45-1.45,1.92,1.92ZM16.07,19.85l-.28-.12c-.21-.09-.36-.17-.4-.28-.04-.11-.02-.28.08-.51l.37-.9c.1.51.18,1.11.24,1.81Z"/>
    <path id="Person_Icon-2" data-name="Person Icon" class="cls-1" d="M9.4,21.3c-1.02,0-3.4.25-3.4,2.6s2.38,2.6,3.4,2.6c1.43,0,3.4-.9,3.4-2.6s-1.97-2.6-3.4-2.6ZM9.4,26.1c-1.12,0-3-.29-3-2.2s1.88-2.2,3-2.2c1.26,0,3,.76,3,2.2s-1.74,2.2-3,2.2ZM40.8,20.9c-.99,0-1.8.81-1.8,1.8v.7l-10.87-1.07,1.49-2.23h5.2s1.6,0,1.6,0c.33,0,.6-.27.6-.6v-4c0-.33-.27-.6-.6-.6-.99,0-1.8.81-1.8,1.8v.62l-4.14-.41c-.9-.09-1.79.18-2.49.76l-3.93,3.23h-7.26c-1.92,0-3.6,1.59-3.6,3.4,0,.99.81,1.8,1.8,1.8h25.8c.33,0,.6-.27.6-.6v-4c0-.33-.27-.6-.6-.6ZM35.02,16.7c0-.77.63-1.4,1.4-1.4.11,0,.2.09.2.2v4c0,.11-.09.2-.2.2h-1.4v-3ZM24.2,21.27v.02s4.05-3.31,4.05-3.31c.62-.51,1.4-.75,2.2-.67l4.18.41v1.97h-5.22s-1.73,2.59-1.73,2.59l-3.48-.34v-.67ZM27.2,25.7h-12.2c-.77,0-1.4-.63-1.4-1.4,0-1.6,1.5-3,3.2-3h7v2h-7c-.11,0-.2.09-.2.2s.09.2.2.2h10.4c.55,0,1,.45,1,1s-.45,1-1,1ZM39,25.7h-10.82c.26-.25.42-.61.42-1,0-.77-.63-1.4-1.4-1.4h-3v-.95l14.8,1.46v1.89ZM41,25.5c0,.11-.09.2-.2.2h-1.4v-3c0-.77.63-1.4,1.4-1.4.11,0,.2.09.2.2v4Z"/>
  </g>
</svg>