<?xml version="1.0" encoding="UTF-8"?>
<svg id="Layer_1" data-name="Layer 1" xmlns="http://www.w3.org/2000/svg" viewBox="0 0 48 48">
  <defs>
    <style>
      .cls-1 {
        fill: #484848;
      }
    </style>
  </defs>
  <path class="cls-1" d="M20.72,22.15c-.14.2-.42.24-.62.09-.2-.14-.24-.42-.09-.62.51-.7,1.19-1.28,1.97-1.68.76-.38,1.61-.6,2.51-.6s1.67.2,2.4.55c.76.37,1.42.89,1.93,1.54.16.19.13.47-.07.63-.19.15-.47.12-.62-.07-.44-.55-.99-.99-1.63-1.29-.61-.29-1.29-.46-2.02-.46-.76,0-1.48.18-2.11.5-.66.34-1.23.82-1.66,1.41h0ZM22.56,23.5c-.15.2-.42.24-.62.1-.2-.14-.24-.42-.09-.62.3-.42.7-.76,1.16-.99.45-.23.95-.35,1.48-.35.5,0,.98.11,1.41.32.45.21.84.53,1.14.91.15.19.12.47-.07.62-.19.16-.47.12-.63-.07-.22-.28-.51-.51-.83-.66-.31-.15-.66-.23-1.03-.23-.39,0-.76.09-1.08.26-.34.17-.63.42-.85.72h0ZM24.49,23.92c.31,0,.59.14.78.37.13.17.22.39.22.63,0,.55-.45,1-1,1s-1-.45-1-1c0-.22.07-.42.19-.59.18-.25.47-.41.8-.41h0ZM20.3,24.58h2.66c-.02.11-.03.22-.03.34s.01.22.03.33h-2.66c-.17,0-.32.07-.43.18h0c-.11.11-.18.26-.18.43v2.26c0,.17.07.32.18.43h0c.11.11.26.18.43.18h8.38c.17,0,.32-.07.43-.18.11-.11.18-.26.18-.43v-2.26c0-.17-.07-.32-.18-.43h0c-.11-.11-.26-.18-.43-.18h-2.67c.03-.11.04-.22.04-.33s-.01-.23-.04-.34h2.67c.35,0,.67.15.9.38h0c.23.23.38.55.38.9v2.26c0,.35-.15.67-.38.9-.23.24-.55.38-.9.38h-8.38c-.35,0-.67-.15-.91-.38h0c-.23-.23-.37-.55-.37-.9v-2.26c0-.35.14-.67.37-.9h0c.23-.23.55-.38.9-.38h0ZM27.47,26.35c0-.05.02-.1.05-.13.03-.03.08-.05.14-.05s.1.02.14.05c.04.03.05.08.05.13s-.02.1-.05.13c-.03.03-.08.05-.14.05s-.1-.02-.14-.05c-.03-.03-.05-.08-.05-.13h0ZM27.83,27.97h-.34v-1.29h.34v1.29h0ZM26.91,27.26h-.69v.71h-.36v-1.74h1.13v.29h-.77v.45h.69v.29h0ZM25.26,27.37h-.67v-.28h.67v.28h0ZM23.65,26.35c0-.05.02-.1.05-.13.04-.03.08-.05.14-.05s.11.02.14.05c.03.03.05.08.05.13s-.02.1-.05.13c-.04.03-.08.05-.14.05s-.1-.02-.14-.05c-.04-.03-.05-.08-.05-.13h0ZM24.01,27.97h-.34v-1.29h.34v1.29h0ZM22.59,27.47l.24-1.24h.36l-.39,1.74h-.36l-.28-1.16-.29,1.16h-.36l-.39-1.74h.36l.24,1.23.29-1.23h.3l.29,1.24h0ZM18.88,20.8c-.14.2-.42.24-.62.1-.2-.15-.24-.42-.1-.62.73-.99,1.68-1.8,2.78-2.36,1.07-.54,2.27-.84,3.54-.84s2.36.28,3.39.77c1.07.51,2,1.26,2.73,2.17.15.19.12.47-.07.62-.19.16-.47.13-.63-.07-.65-.81-1.47-1.47-2.42-1.92-.91-.44-1.93-.68-3.01-.68-1.13,0-2.2.27-3.14.75-.98.5-1.83,1.22-2.47,2.1h0Z"/>
  <path class="cls-1" d="M42.99,23.52c-.9-.24-2.07.11-2.47,1.23-.31.85-1.17,3.61-1.38,4.28l-.88.72c-.08-.08-.17-.16-.27-.23-.22-.15-.48-.23-.75-.27v-10.2l.63.45c.41.29.88.43,1.35.43.73,0,1.45-.34,1.91-.98.75-1.05.5-2.51-.54-3.26L24.32,4.09s-.01,0-.02,0c-.03-.02-.06-.03-.09-.04-.03-.01-.06-.03-.09-.03-.03,0-.06,0-.09,0s-.06,0-.09,0c-.03,0-.06.02-.09.03-.03.01-.06.02-.09.04,0,0-.01,0-.02,0L7.47,15.7c-1.05.75-1.29,2.21-.54,3.26.46.64,1.17.98,1.9.98.47,0,.94-.14,1.35-.43l.63-.45v10.19c-.29.04-.57.12-.81.28-.1.07-.19.14-.27.23l-.88-.72c-.21-.67-1.07-3.43-1.38-4.28-.4-1.12-1.57-1.47-2.47-1.23-.7.19-1.1.71-.99,1.32l1.47,6.3s.02.07.04.1c.08.16,1.89,3.9,3.02,5.17.41.46,2.35,1.54,5.06,3.02.44.24.9.49,1.29.71l-.21.05c-.27.06-.44.33-.37.6l.66,2.81c.05.23.25.39.49.39h17.07c.23,0,.43-.16.49-.39l.66-2.81c.06-.27-.1-.54-.37-.6l-.21-.05c.4-.22.86-.47,1.29-.71,2.7-1.48,4.65-2.56,5.06-3.02,1.13-1.27,2.94-5.01,3.02-5.17.02-.03.03-.07.04-.1l1.48-6.33c.11-.59-.29-1.11-.99-1.3ZM9.6,18.69c-.6.43-1.44.29-1.86-.31-.43-.6-.29-1.43.31-1.86l15.98-11.41,15.98,11.41c.6.43.74,1.26.31,1.86-.43.6-1.27.74-1.86.31l-14.14-10.05s-.01,0-.02,0c-.03-.02-.06-.03-.1-.04-.03-.01-.05-.02-.08-.03-.03,0-.07,0-.1,0-.03,0-.06,0-.09,0-.03,0-.06.02-.09.03-.03.01-.06.02-.09.04,0,0-.01,0-.02,0l-14.14,10.05ZM14.09,38.56c-1.67-.91-4.47-2.44-4.79-2.81-.97-1.09-2.62-4.44-2.84-4.89l-1.46-6.23c.02-.05.22-.19.56-.19.21-.01.77.04.98.64.33.93,1.39,4.35,1.41,4.38.03.09.09.18.16.24l1.18.95c-.02.13-.03.27-.02.41.06.7.51,1.3,1.24,1.64l2.97,1.46c.25.12.55.02.67-.23.12-.25.02-.55-.23-.67l-2.98-1.46c-.41-.19-.65-.48-.68-.82-.02-.26.1-.51.31-.65.29-.2.71-.19,1.19.04l2.88,1.38c.25.11.6.2,1.01.31.57.15,1.28.33,1.73.59,1.8,1.04,3.05,3.01,3.83,6.01l-4.88,1.14c-.36-.23-1.09-.63-2.24-1.26ZM15.86,43l-.45-1.94.93-.22s0,0,0,0l5.58-1.31s0,0,0,0l.6-.14.84,3.61h-7.51ZM24,41.29l-.61-2.61c-.03-.13-.11-.24-.22-.31-.11-.07-.25-.09-.38-.06l-.62.14c-.85-3.28-2.25-5.47-4.29-6.65-.57-.33-1.36-.53-1.98-.69-.35-.09-.68-.17-.83-.24l-2.87-1.37c-.13-.06-.25-.09-.38-.14v-11.01l12.22-8.68,12.22,8.68v10.99c-.15.04-.29.09-.44.16l-2.87,1.37c-.17.08-.5.16-.84.25-.63.16-1.41.36-1.98.69-2.04,1.18-3.44,3.37-4.29,6.65l-.62-.14c-.13-.03-.27,0-.38.06-.11.07-.19.18-.22.31l-.61,2.61ZM32.14,43h-7.51l.84-3.61.6.14s0,0,0,0l5.58,1.31s0,0,0,0l.93.22-.45,1.94ZM41.54,30.86c-.22.45-1.87,3.8-2.84,4.89-.33.37-3.12,1.9-4.79,2.81-1.15.63-1.88,1.03-2.24,1.26l-4.88-1.14c.78-3.04,2.01-4.96,3.83-6.01.46-.26,1.16-.44,1.73-.59.41-.1.76-.19,1.02-.31l2.88-1.37c.47-.23.89-.24,1.18-.04.21.14.33.39.31.65-.03.34-.27.63-.69.82l-2.98,1.46c-.25.12-.35.42-.23.67.12.25.42.35.67.23l2.97-1.45c.74-.35,1.19-.94,1.25-1.64.01-.14,0-.28-.02-.41l1.18-.95c.08-.06.13-.15.16-.24.01-.03,1.07-3.46,1.41-4.38.22-.6.77-.64.98-.64.34,0,.54.13.56.17l-1.46,6.25Z"/>
</svg>